<svg width="48" height="45" viewBox="0 0 48 45" fill="none" xmlns="http://www.w3.org/2000/svg">
<path d="M9.7754 12.127C11.2049 9.85382 12.4719 7.4434 13.5968 4.88312C13.9647 4.04818 14.317 3.1967 14.6546 2.32868C14.7734 2.02312 14.7179 1.6981 14.5038 1.44995C14.2887 1.20083 13.9764 1.09865 13.6562 1.17164C12.76 1.37599 11.8676 1.60857 10.9801 1.86742C7.5742 2.86292 4.24515 4.25351 1.05332 6.04211L0.443169 6.38367C0.10063 6.57538 -0.0667469 6.95782 0.0247265 7.33928L0.188211 8.02338C0.854799 10.8065 1.61189 13.4495 2.47407 15.9631C2.91782 17.2564 3.39075 18.5156 3.89288 19.7417C4.14979 20.3674 4.4135 20.9854 4.68598 21.5936C5.04311 22.3925 5.41582 23.1768 5.80117 23.9466C5.92865 24.2006 6.14858 24.3631 6.42786 24.4107C6.70715 24.4584 6.96892 24.3786 7.17327 24.1811C7.80191 23.5758 8.41109 22.9579 9.0008 22.3273C11.1621 20.0161 13.0684 17.5288 14.7539 14.8489C16.7858 11.6161 18.4897 8.10804 19.9251 4.28757C20.0457 3.96547 20.325 3.75625 20.6675 3.72997C21.2135 3.68716 21.7604 3.65504 22.3073 3.63363C22.8707 3.61125 23.4351 3.59957 23.9995 3.59957C24.6914 3.59957 25.3833 3.61612 26.0752 3.65018C26.3914 3.66575 26.7077 3.68424 27.024 3.70662C27.2974 3.72608 27.5242 3.85648 27.6779 4.08224C27.8317 4.30801 27.8696 4.56783 27.7879 4.82863C26.1997 9.87037 24.2068 14.3652 21.6806 18.3832C19.2633 22.229 16.3469 25.6495 12.8183 28.71C12.1313 29.3055 11.4219 29.8875 10.6872 30.4567C10.3155 30.7448 10.2425 31.2781 10.5218 31.6556C11.0648 32.3884 11.6282 33.1066 12.2121 33.8082C12.5391 34.2013 12.8719 34.5886 13.2115 34.972C14.0104 35.8741 14.8463 36.7499 15.7192 37.6004C16.197 38.0656 16.6855 38.5229 17.1867 38.9735C18.0956 39.7909 19.0424 40.584 20.0311 41.3547C20.9789 42.0933 21.9637 42.8115 22.9875 43.5102L23.512 43.8673C23.8117 44.0717 24.1864 44.0717 24.4861 43.8673L25.0106 43.5102C31.1938 39.2937 35.9592 34.3453 39.657 28.4628C43.3296 22.6212 45.9307 15.8755 47.8118 8.02241L47.9753 7.33831C48.0667 6.95684 47.8994 6.57441 47.5568 6.3827L46.9467 6.04114C45.6962 5.33952 44.4234 4.70017 43.134 4.12117C42.3292 3.76014 41.5176 3.42247 40.7002 3.10912C40.4589 3.01668 40.2146 3.03127 39.9859 3.15194C39.7573 3.27261 39.6074 3.46723 39.549 3.7183C39.3456 4.5834 39.1335 5.43585 38.9116 6.27468C37.1026 13.1128 34.6532 19.0625 31.3631 24.2696C28.8846 28.1933 25.9185 31.7043 22.3802 34.8669C22.1856 35.0411 22.0864 35.2679 22.0922 35.5287C22.0971 35.7894 22.2051 36.0123 22.4065 36.1787C22.9009 36.5855 23.403 36.9835 23.9129 37.3708C24.2477 37.6248 24.705 37.6053 25.0164 37.3241C28.6958 33.997 31.7942 30.303 34.3983 26.1799C37.6466 21.0379 40.1144 15.24 41.974 8.65883C42.046 8.4029 42.2124 8.2112 42.4557 8.10318C42.699 7.99516 42.952 8.00003 43.1904 8.11875C43.2508 8.14892 43.3111 8.17908 43.3714 8.20925C43.7412 8.39414 43.9251 8.80285 43.82 9.20183C42.0811 15.8142 39.7631 21.5498 36.6199 26.5506C33.4962 31.5194 29.5414 35.7778 24.5085 39.4669C24.199 39.6936 23.7952 39.6936 23.4857 39.4669C23.3135 39.3404 23.1412 39.2129 22.9709 39.0844C21.9783 38.3381 21.0286 37.5693 20.1197 36.7752C19.6088 36.3295 19.1106 35.8761 18.6259 35.4148C17.7462 34.5789 16.9084 33.7177 16.1094 32.8292C15.9265 32.6258 15.7455 32.4205 15.5664 32.2142C15.257 31.8571 15.292 31.315 15.6453 31.0017C19.2273 27.8176 22.2138 24.2687 24.7128 20.2925C27.673 15.5826 29.9375 10.2859 31.6901 4.29438C31.9373 3.44874 32.1747 2.58948 32.4014 1.71659C32.4647 1.47331 32.4277 1.23976 32.2905 1.02859C32.1543 0.817422 31.9567 0.687997 31.7086 0.646152C30.8328 0.498238 29.9531 0.375625 29.0724 0.278313C28.4233 0.207275 27.7743 0.148888 27.1242 0.105097C26.083 0.0350324 25.0408 0 23.9976 0C23.8098 0 23.6219 0.000973121 23.4341 0.00389248C22.7422 0.0126506 22.0513 0.0360055 21.3604 0.0759034C20.2413 0.139156 19.1251 0.244253 18.0119 0.389248C17.6771 0.433039 17.4134 0.649072 17.3054 0.968256C16.9132 2.12238 16.4977 3.24633 16.0579 4.34109C14.8181 7.42686 13.3847 10.2849 11.7178 12.9367C10.6765 14.5939 9.54185 16.1723 8.30599 17.6767C8.10553 17.92 7.81359 18.031 7.50219 17.9823C7.19079 17.9336 6.94751 17.7371 6.83268 17.4432C6.7344 17.1921 6.63709 16.9391 6.54172 16.6842C6.04251 15.3597 5.57736 13.9954 5.14237 12.5883C4.80178 11.4857 4.48065 10.3579 4.17606 9.20281C4.07096 8.80285 4.25488 8.39512 4.62467 8.21022C5.30683 7.86768 5.9958 7.54461 6.68963 7.24099C7.03704 7.08821 7.42629 7.17288 7.6793 7.45508C7.93328 7.73729 7.97513 8.13335 7.78731 8.46226C7.44964 9.05197 7.10224 9.63195 6.74413 10.2022C6.60497 10.4231 6.57286 10.6683 6.64974 10.9174L6.98936 12.018C7.11489 12.4229 7.24334 12.8277 7.37471 13.2306C7.47981 13.5517 7.74255 13.7716 8.0773 13.8173C8.41303 13.8641 8.72443 13.7239 8.91322 13.4437C9.20515 13.0097 9.49028 12.5708 9.76956 12.1261L9.7754 12.127ZM11.8141 27.2328C14.894 24.3232 17.5088 21.1177 19.7372 17.5736C21.8236 14.2543 23.5645 10.643 25.0242 6.70188C25.1254 6.42941 25.0904 6.14915 24.924 5.90976C24.7585 5.67038 24.5085 5.53901 24.2175 5.53706C24.1455 5.53706 24.0735 5.53706 24.0015 5.53706C23.4623 5.53706 22.9242 5.54776 22.3851 5.56917L22.1817 5.57696C21.8285 5.59058 21.5346 5.80175 21.4091 6.13164C20.0885 9.57746 18.5354 12.7459 16.7011 15.6634C14.7763 18.7258 12.5342 21.5186 9.91942 24.075C9.21878 24.7601 8.49185 25.4277 7.73671 26.0787C7.41753 26.3541 7.3426 26.8085 7.55668 27.1725C7.81359 27.6084 8.07536 28.0395 8.34394 28.4657C8.41498 28.5796 8.48699 28.6925 8.559 28.8054C8.69816 29.0233 8.90349 29.1567 9.15942 29.1946C9.41535 29.2326 9.65084 29.1654 9.84741 28.9971C10.5228 28.4219 11.1777 27.8332 11.8131 27.2328H11.8141ZM33.612 4.69336C31.9022 10.9136 29.6572 16.3445 26.6629 21.108C24.3537 24.7815 21.5891 28.0677 18.2707 31.0212C18.0897 31.1827 17.9924 31.387 17.9817 31.6284C17.971 31.8697 18.0499 32.0828 18.2163 32.259C18.6503 32.7202 19.094 33.1718 19.5475 33.6145C19.8735 33.9327 20.3883 33.9434 20.7269 33.6408C24.2661 30.4791 27.2215 26.9584 29.6981 23.0192C32.8841 17.9512 35.2644 12.202 37.0666 5.64021C37.3099 4.75662 37.5415 3.85843 37.7643 2.94564C37.8733 2.49703 37.6115 2.04258 37.1688 1.91218C36.5635 1.73313 35.9563 1.5677 35.3471 1.41395C35.1145 1.35556 34.8946 1.38864 34.6893 1.51223C34.4839 1.63582 34.3526 1.81584 34.2961 2.04842C34.0781 2.94564 33.8504 3.82826 33.612 4.69434V4.69336Z" fill="white"/>
</svg>

